<svg aria-hidden="true" style="position: absolute; width: 0; height: 0; overflow: hidden;" version="1.1" xmlns="http://www.w3.org/2000/svg" xmlns:xlink="http://www.w3.org/1999/xlink">
<defs>
<symbol id="icon-swarmV2" viewBox="0 0 32 32">
<path d="M0 16v16h32v-32h-32v16zM5.004 7.663c1.355 1.084 3.502 2.52 5.296 3.532 1.518 0.859 2.99 1.646 2.99 1.605 0-0.015-0.041-0.097-0.087-0.189-0.128-0.245-0.118-0.823 0.020-1.084 0.056-0.112 0.153-0.25 0.215-0.302 0.056-0.051 0.164-0.215 0.225-0.358 0.066-0.148 0.194-0.348 0.286-0.45 0.087-0.102 0.158-0.21 0.158-0.245 0-0.112-0.358-0.557-0.721-0.884l-0.358-0.327 0.286-0.061c0.455-0.102 0.925 0.082 1.442 0.573l0.164 0.153 0.245-0.107c0.593-0.25 1.073-0.25 1.666 0l0.24 0.102 0.22-0.199c0.256-0.235 0.588-0.434 0.874-0.527 0.153-0.051 0.256-0.051 0.491 0l0.297 0.061-0.45 0.445c-0.245 0.24-0.496 0.516-0.552 0.613l-0.107 0.179 0.179 0.199c0.102 0.112 0.235 0.312 0.297 0.445s0.194 0.337 0.297 0.455c0.297 0.348 0.363 0.751 0.199 1.217-0.051 0.148-0.072 0.271-0.051 0.271 0.056 0 0.792-0.389 2.091-1.114 3.435-1.917 6.16-3.813 7.356-5.132 0.123-0.133 0.24-0.235 0.261-0.22 0.097 0.061 0.169 1.222 0.138 2.351-0.097 3.762-1.278 7.228-2.939 8.619-0.491 0.409-0.368 0.424-1.646-0.215-0.624-0.312-1.15-0.557-1.176-0.547-0.020 0.010-0.225 0.291-0.445 0.629-0.47 0.716-0.915 1.252-1.206 1.462-0.112 0.082-0.22 0.148-0.24 0.148s-0.164-0.169-0.322-0.373c-0.158-0.199-0.394-0.47-0.521-0.598l-0.24-0.23 0.107 0.204c0.061 0.112 0.107 0.25 0.107 0.307s-0.138 0.307-0.307 0.557l-0.307 0.455 0.107 0.235c0.123 0.281 0.455 0.639 0.726 0.782l0.199 0.097-0.353 0.368c-0.992 1.033-1.764 1.574-2.459 1.733-0.199 0.041-0.296 0.097-0.358 0.189-0.046 0.072-0.143 0.215-0.225 0.317-0.097 0.128-0.179 0.348-0.266 0.716-0.066 0.291-0.184 0.716-0.261 0.941-0.143 0.44-0.527 1.252-0.593 1.252-0.056 0-0.44-0.808-0.583-1.252-0.077-0.225-0.194-0.649-0.261-0.946-0.087-0.373-0.169-0.593-0.266-0.716-0.077-0.097-0.179-0.24-0.225-0.312-0.061-0.092-0.158-0.148-0.358-0.189-0.695-0.158-1.488-0.721-2.484-1.758l-0.327-0.343 0.199-0.097c0.281-0.148 0.573-0.455 0.716-0.757l0.123-0.266-0.337-0.491-0.332-0.496 0.266-0.532-0.215 0.204c-0.118 0.112-0.353 0.383-0.521 0.598-0.174 0.22-0.332 0.399-0.353 0.399s-0.148-0.087-0.286-0.199c-0.317-0.245-0.751-0.787-1.217-1.503-0.194-0.302-0.378-0.547-0.409-0.547-0.026 0-0.557 0.256-1.171 0.562-1.242 0.619-1.135 0.598-1.564 0.266-1.457-1.15-2.581-3.987-2.939-7.417-0.118-1.135-0.087-3.18 0.056-3.578 0.015-0.051 0.189 0.092 0.516 0.424 0.271 0.276 0.716 0.68 0.981 0.895zM19.471 9.881c0 0.046-0.010 0.041-0.031-0.005-0.010-0.031-0.051-0.046-0.077-0.031-0.036 0.020-0.041 0.010-0.020-0.026 0.046-0.066 0.133-0.026 0.128 0.061zM19.967 10.137c0.005 0.046-0.010 0.077-0.036 0.056-0.026-0.015-0.036-0.051-0.015-0.077 0.015-0.031-0.010-0.046-0.061-0.036-0.061 0.010-0.092-0.010-0.082-0.056 0.010-0.041-0.015-0.056-0.061-0.041-0.082 0.031-0.153-0.031-0.097-0.087 0.051-0.051 0.337 0.138 0.353 0.24zM11.757 10.040c0 0.010-0.036 0.036-0.082 0.051-0.041 0.015-0.061 0.010-0.046-0.020 0.031-0.051 0.128-0.072 0.128-0.031zM20.105 10.198c-0.015 0.046-0.041 0.072-0.051 0.056-0.015-0.015-0.010-0.046 0.010-0.077 0.046-0.082 0.077-0.066 0.041 0.020zM20.514 10.285c-0.056 0.066-0.097 0.158-0.092 0.204 0.010 0.051-0.010 0.092-0.041 0.092-0.041 0-0.041 0.015-0.010 0.041 0.082 0.056 0.072 0.307-0.010 0.337-0.061 0.026-0.072-0.020-0.061-0.22 0.010-0.138-0.010-0.281-0.041-0.322-0.118-0.153-0.123-0.189-0.015-0.169 0.056 0.010 0.123 0.031 0.148 0.046s0.072-0.005 0.107-0.046c0.036-0.041 0.077-0.077 0.092-0.077s-0.020 0.051-0.077 0.112zM23.361 17.677c0 0.020-0.077 0.066-0.164 0.107-0.092 0.041-0.184 0.097-0.204 0.128-0.031 0.041-0.041 0.041-0.041 0 0-0.077 0.153-0.21 0.281-0.24 0.056-0.010 0.107-0.026 0.118-0.031 0.005 0 0.010 0.010 0.010 0.036zM9.104 18.183c0.061 0.082 0.061 0.087-0.010 0.031-0.046-0.036-0.102-0.046-0.123-0.026-0.026 0.020-0.026 0.005-0.005-0.031 0.046-0.082 0.056-0.077 0.138 0.026zM9.426 18.403c0.015 0.041 0.051 0.128 0.082 0.194 0.036 0.092 0.036 0.107-0.015 0.082-0.046-0.031-0.041-0.015 0.005 0.041s0.051 0.092 0.010 0.118c-0.056 0.036-0.118-0.077-0.097-0.184 0.020-0.097-0.051-0.302-0.107-0.302-0.020 0-0.051-0.036-0.072-0.077-0.020-0.061-0.010-0.066 0.072-0.015 0.051 0.036 0.107 0.097 0.123 0.143zM21.996 19.41c-0.010 0.194-0.026 0.419-0.031 0.511-0.010 0.087 0.005 0.148 0.026 0.138 0.020-0.015 0.046 0.010 0.046 0.051 0.005 0.046 0.010 0.107 0.015 0.143 0 0.031 0.046 0.061 0.097 0.072 0.118 0.015 0.184 0.072 0.087 0.072-0.046 0-0.036 0.026 0.031 0.077 0.092 0.072 0.087 0.072-0.041 0.020-0.082-0.036-0.143-0.077-0.143-0.097 0-0.082-0.307-0.015-0.491 0.107-0.107 0.072-0.266 0.174-0.353 0.225l-0.153 0.092 0.179-0.189c0.097-0.102 0.23-0.199 0.291-0.215 0.066-0.020 0.118-0.051 0.118-0.072 0-0.066 0.199-0.097 0.22-0.036 0.010 0.031 0.031 0.015 0.051-0.031 0.015-0.046 0.005-0.097-0.026-0.118-0.036-0.026-0.041-0.010-0.015 0.036 0.026 0.041 0.026 0.056 0 0.036-0.020-0.020-0.036-0.271-0.031-0.562 0.010-0.455 0.036-0.562 0.133-0.603 0.005 0-0.005 0.153-0.010 0.343zM9.789 20.386c-0.031 0.036-0.23-0.046-0.23-0.092 0-0.020 0.056-0.015 0.123 0.015 0.072 0.036 0.118 0.066 0.107 0.077zM22.656 20.662c-0.036 0.036-0.087 0.031-0.164-0.010-0.087-0.046-0.102-0.072-0.046-0.102 0.087-0.056 0.281 0.041 0.21 0.112zM10.418 20.734c0.010 0.005-0.046 0.005-0.118 0.005s-0.143-0.015-0.158-0.041c-0.015-0.026 0.015-0.031 0.061-0.010 0.066 0.026 0.077 0.015 0.046-0.041-0.036-0.061-0.031-0.061 0.056 0.005 0.051 0.041 0.102 0.077 0.112 0.082zM10.684 20.907c0.015 0.015 0.061 0.026 0.102 0.026s0.072 0.031 0.061 0.066c-0.005 0.041 0.026 0.056 0.112 0.031 0.123-0.031 0.225 0.051 0.138 0.107-0.031 0.015-0.041 0.061-0.020 0.102 0.020 0.056 0.005 0.066-0.051 0.046-0.046-0.015-0.066-0.061-0.051-0.102s-0.005-0.072-0.036-0.072c-0.036 0-0.148-0.061-0.25-0.138-0.102-0.082-0.204-0.138-0.225-0.128-0.026 0.005-0.031-0.010-0.010-0.041 0.031-0.051 0.112-0.015 0.23 0.102zM20.371 22.369c-0.066 0.072-0.077 0.041-0.077-0.327 0-0.281 0.020-0.419 0.066-0.434 0.102-0.031 0.112 0.659 0.010 0.762zM20.345 22.681c-0.056 0.087-0.056 0.087-0.031 0 0.015-0.051 0.031-0.123 0.036-0.153 0-0.046 0.010-0.046 0.026 0 0.015 0.036 0 0.102-0.031 0.153zM20.575 23.049c-0.031 0.026-0.128-0.051-0.128-0.102 0-0.026 0.031-0.020 0.072 0.015s0.061 0.077 0.056 0.087zM11.169 23.044c-0.015 0.015-0.056 0-0.092-0.036-0.046-0.051-0.041-0.056 0.031-0.026 0.051 0.015 0.077 0.046 0.061 0.061zM13.955 23.105c0 0.026-0.020 0.051-0.046 0.051s-0.082 0.015-0.128 0.031c-0.046 0.015-0.082 0.005-0.082-0.020 0-0.046 0.082-0.087 0.22-0.107 0.020 0 0.036 0.015 0.036 0.046zM20.176 23.085c-0.015 0.015-0.061 0.020-0.097 0.005-0.041-0.015-0.026-0.031 0.031-0.031 0.056-0.005 0.087 0.010 0.066 0.026zM13.664 23.228c0.020 0.051 0 0.072-0.066 0.066-0.072-0.005-0.082-0.020-0.041-0.072 0.066-0.082 0.077-0.082 0.107 0.005zM18.178 23.397c0.112 0.061 0.21 0.148 0.21 0.189 0 0.056-0.026 0.066-0.097 0.026-0.051-0.031-0.077-0.077-0.061-0.107 0.026-0.041 0.005-0.046-0.051-0.026-0.056 0.026-0.077 0.015-0.051-0.026s0.010-0.046-0.051-0.026c-0.051 0.020-0.077 0.015-0.056-0.015 0.015-0.031-0.005-0.051-0.046-0.051s-0.087-0.020-0.102-0.046c-0.046-0.072 0.072-0.036 0.307 0.082zM19.701 23.351c0.015 0.026-0.005 0.046-0.046 0.046s-0.061-0.020-0.046-0.046c0.015-0.020 0.036-0.041 0.046-0.041s0.031 0.020 0.046 0.041zM13.444 23.381c0 0.015-0.020 0.041-0.051 0.056-0.026 0.015-0.051 0.005-0.051-0.020 0-0.031 0.026-0.056 0.051-0.056 0.031 0 0.051 0.010 0.051 0.020zM19.553 23.458c0.015 0.026 0 0.066-0.031 0.087-0.036 0.020-0.046 0.015-0.026-0.020 0.015-0.026 0-0.066-0.031-0.077-0.046-0.020-0.051-0.031-0.005-0.031 0.031-0.005 0.072 0.015 0.092 0.041zM19.374 23.52c0 0.026-0.026 0.036-0.061 0.015-0.041-0.026-0.046-0.005-0.020 0.061 0.026 0.072 0.020 0.082-0.026 0.036-0.031-0.031-0.041-0.082-0.026-0.112 0.046-0.072 0.133-0.072 0.133 0z"></path>
<path d="M3.594 6.988c-0.020 0.164-0.036 0.757-0.036 1.319 0.015 2.909 0.797 5.986 1.963 7.77 0.261 0.394 0.91 1.094 1.176 1.268 0.128 0.082 0.153 0.072 1.073-0.389 0.521-0.261 1.063-0.521 1.206-0.583l0.266-0.107 0.409 0.624c0.48 0.736 0.956 1.334 1.191 1.508l0.169 0.123 0.179-0.225c0.097-0.123 0.419-0.465 0.716-0.762 0.414-0.409 0.629-0.583 0.915-0.726 0.389-0.199 0.414-0.199 0.644-0.031 0.087 0.066 0.077 0.082-0.153 0.169-0.629 0.235-1.252 0.859-1.176 1.176 0.015 0.061 0.158 0.296 0.317 0.511l0.281 0.399-0.077 0.215c-0.138 0.358-0.368 0.67-0.624 0.849l-0.24 0.164 0.562 0.547c0.803 0.782 1.462 1.201 2.096 1.329 0.189 0.041 0.286 0.092 0.327 0.169 0.031 0.061 0.143 0.225 0.25 0.368 0.123 0.164 0.204 0.337 0.23 0.486 0.092 0.573 0.639 2.198 0.736 2.198 0.112 0 0.659-1.631 0.746-2.208 0.020-0.143 0.087-0.302 0.164-0.383 0.066-0.077 0.179-0.235 0.25-0.353 0.112-0.194 0.153-0.22 0.465-0.297 0.654-0.158 1.222-0.527 2.024-1.303l0.557-0.542-0.23-0.164c-0.25-0.184-0.496-0.516-0.629-0.864l-0.087-0.225 0.204-0.266c0.327-0.434 0.44-0.644 0.404-0.777-0.087-0.343-0.598-0.787-1.176-1.022l-0.276-0.112 0.389-0.225 0.368 0.189c0.291 0.143 0.501 0.307 0.946 0.751 0.312 0.312 0.639 0.659 0.726 0.767l0.153 0.199 0.158-0.112c0.225-0.158 0.767-0.849 1.217-1.549l0.383-0.593 0.266 0.107c0.148 0.056 0.69 0.322 1.206 0.583l0.941 0.48 0.194-0.133c0.317-0.225 0.833-0.797 1.145-1.268 1.155-1.779 1.922-4.836 1.937-7.755 0-0.547-0.015-1.13-0.036-1.293l-0.046-0.296-0.337 0.322c-1.058 0.992-2.484 2.040-4.56 3.338-1.283 0.803-3.553 2.081-4.861 2.74l-0.634 0.317 0.23-0.25c0.578-0.619 0.67-1.442 0.21-1.82-0.077-0.066-0.179-0.225-0.23-0.358s-0.194-0.358-0.322-0.506l-0.24-0.261 0.102-0.184c0.051-0.097 0.266-0.363 0.475-0.583l0.373-0.399h-0.179c-0.23 0-0.624 0.215-0.997 0.547l-0.302 0.266-0.24-0.123c-0.552-0.281-1.089-0.281-1.682-0.010l-0.271 0.123-0.302-0.276c-0.363-0.322-0.741-0.527-0.987-0.527h-0.174l0.378 0.404c0.21 0.225 0.424 0.491 0.47 0.593l0.087 0.184-0.23 0.256c-0.123 0.138-0.266 0.363-0.317 0.496s-0.153 0.291-0.23 0.353c-0.179 0.148-0.302 0.465-0.302 0.777 0 0.322 0.235 0.797 0.537 1.073 0.128 0.118 0.215 0.21 0.194 0.21-0.051 0-1.917-0.971-2.673-1.396-3.277-1.825-5.684-3.44-7.192-4.826l-0.516-0.481-0.046 0.296zM4.693 8.987c0.281 0.332 1.043 0.992 1.748 1.518 0.296 0.22 0.567 0.424 0.608 0.455s-0.031-0.097-0.158-0.281c-0.235-0.348-0.455-0.767-0.583-1.13l-0.066-0.199 0.164 0.133c0.629 0.516 1.508 1.104 2.551 1.702 1.339 0.777 3.905 2.086 4.969 2.546l0.455 0.194-0.348 0.118c-0.194 0.066-0.394 0.118-0.45 0.118-0.051 0-0.409-0.169-0.792-0.378-0.383-0.204-0.828-0.445-0.981-0.527-0.153-0.087-0.624-0.332-1.038-0.547-0.419-0.215-0.838-0.44-0.935-0.496-0.48-0.271-1.656-0.843-1.58-0.772 0.225 0.22 1.85 1.355 3.742 2.617 0.317 0.21 0.578 0.394 0.578 0.409s-0.128 0.051-0.286 0.082c-0.235 0.041-0.307 0.036-0.419-0.031-0.077-0.046-0.434-0.24-0.803-0.434-0.363-0.189-1.099-0.583-1.636-0.869-1.145-0.619-1.406-0.751-1.406-0.721 0 0.020 1.718 1.6 2.433 2.239 0.179 0.158 0.312 0.302 0.286 0.312-0.020 0.015-0.256 0.097-0.521 0.189-0.552 0.189-1.048 0.404-2.055 0.884l-0.695 0.332-0.199-0.097c-0.107-0.051-0.307-0.235-0.445-0.404s-0.261-0.296-0.271-0.286c-0.020 0.015 0.118 0.44 0.266 0.823 0.061 0.158-0.414-0.317-0.67-0.67-0.394-0.552-0.803-1.457-1.063-2.367-0.123-0.419-0.337-1.411-0.337-1.539 0-0.036 0.087 0 0.189 0.082 0.204 0.153 0.7 0.373 0.849 0.378 0.077 0 0.051-0.051-0.118-0.24-0.302-0.342-0.532-0.741-0.772-1.344-0.199-0.501-0.506-1.595-0.583-2.096l-0.036-0.23 0.092 0.128c0.051 0.072 0.194 0.25 0.317 0.399zM27.68 9.211c-0.312 1.39-0.721 2.331-1.293 2.965-0.123 0.138-0.153 0.194-0.097 0.194 0.153 0 0.639-0.204 0.849-0.358 0.256-0.189 0.261-0.174 0.102 0.552-0.358 1.666-0.992 3.047-1.728 3.767-0.143 0.138-0.261 0.24-0.261 0.22 0-0.015 0.056-0.153 0.118-0.302 0.066-0.153 0.138-0.353 0.153-0.445 0.031-0.164 0.031-0.158-0.184 0.102-0.123 0.148-0.322 0.332-0.45 0.414l-0.23 0.143-0.854-0.409c-0.833-0.399-1.794-0.803-2.219-0.93-0.123-0.036-0.22-0.077-0.22-0.097 0-0.015 0.184-0.204 0.414-0.414s0.532-0.486 0.68-0.624c0.143-0.133 0.573-0.521 0.956-0.869 0.383-0.342 0.69-0.629 0.685-0.639-0.015-0.015-1.447 0.726-2.183 1.14-0.194 0.102-0.348 0.169-0.348 0.143 0-0.020-0.020-0.015-0.041 0.020-0.020 0.031-0.348 0.225-0.721 0.424-0.67 0.358-0.695 0.368-0.961 0.332-0.148-0.015-0.281-0.046-0.291-0.066s0.603-0.455 1.365-0.966c1.36-0.91 2.745-1.886 2.898-2.045 0.041-0.046-0.373 0.153-0.93 0.434-1.068 0.552-1.258 0.649-3.093 1.626-0.654 0.348-1.217 0.634-1.252 0.634s-0.24-0.051-0.45-0.118l-0.383-0.118 0.23-0.092c0.7-0.276 3.159-1.503 4.417-2.198 1.462-0.813 2.668-1.58 3.241-2.060 0.143-0.128 0.266-0.215 0.266-0.199 0 0.123-0.44 1.007-0.644 1.293l-0.25 0.348 0.281-0.199c1.114-0.803 2.387-1.948 2.484-2.229 0.102-0.307 0.066 0.077-0.056 0.624zM14.298 9.493c0.169 0.128 0.603 0.634 0.48 0.557-0.046-0.031-0.061-0.026-0.046 0.026 0.015 0.041 0.051 0.072 0.092 0.072 0.036 0 0.097 0.056 0.143 0.128l0.072 0.128-0.107-0.128c-0.153-0.184-0.133-0.092 0.051 0.23 0.128 0.225 0.143 0.281 0.077 0.281-0.046 0-0.138-0.118-0.215-0.271-0.189-0.373-0.409-0.68-0.711-1.002-0.261-0.281-0.194-0.286 0.164-0.020zM18.014 9.467c-0.307 0.327-0.501 0.593-0.721 0.992-0.107 0.199-0.22 0.353-0.256 0.342-0.036-0.015-0.015-0.092 0.066-0.235 0.148-0.266 0.158-0.363 0.015-0.189l-0.107 0.128 0.102-0.179c0.164-0.286 0.527-0.685 0.797-0.889 0.327-0.24 0.353-0.235 0.102 0.031zM16.593 9.845c0.112 0.046 0.215 0.107 0.235 0.143 0.020 0.031 0.041 0.036 0.041 0.005s0.020-0.020 0.046 0.020c0.097 0.153 0.010 0.21-0.21 0.128-0.112-0.041-0.21-0.072-0.215-0.072s0 0.097 0.010 0.215l0.015 0.22-0.077-0.158c-0.036-0.087-0.133-0.204-0.21-0.266-0.128-0.102-0.148-0.102-0.286-0.036-0.082 0.046-0.194 0.164-0.25 0.271l-0.107 0.189 0.026-0.22c0.010-0.118 0.010-0.215 0-0.215-0.015 0-0.102 0.036-0.199 0.072-0.169 0.072-0.179 0.072-0.235-0.036-0.036-0.061-0.041-0.097-0.020-0.077s0.066 0.005 0.097-0.041c0.158-0.21 0.966-0.296 1.339-0.143zM16.189 10.541c0.128 0.118 0.148 0.276 0.066 0.547-0.077 0.276-0.010 0.256 0.107-0.031 0.061-0.138 0.153-0.281 0.21-0.317 0.087-0.056 0.092-0.051 0.046 0.036-0.031 0.056-0.036 0.112-0.020 0.133 0.015 0.015 0.010 0.031-0.020 0.031-0.026 0-0.051 0.031-0.051 0.066 0 0.087-0.23 0.45-0.368 0.567-0.087 0.077-0.118 0.087-0.184 0.031-0.092-0.077-0.409-0.588-0.48-0.782-0.102-0.261 0.123-0.046 0.245 0.235 0.118 0.286 0.184 0.307 0.107 0.031-0.077-0.266-0.061-0.414 0.061-0.542 0.133-0.143 0.133-0.143 0.281-0.005zM14.446 10.525c-0.041 0.061 0.097 0.169 0.148 0.118 0.020-0.020-0.036 0.072-0.128 0.204-0.087 0.138-0.184 0.245-0.215 0.245s-0.102 0.041-0.158 0.087c-0.097 0.087-0.097 0.087-0.061-0.036 0.066-0.215 0.174-0.404 0.266-0.455 0.051-0.031 0.072-0.056 0.046-0.056s-0.015-0.036 0.020-0.077c0.066-0.082 0.128-0.107 0.082-0.031zM15.182 10.633c0.031 0.056 0.041 0.102 0.031 0.102-0.015 0-0.051-0.046-0.082-0.102s-0.041-0.102-0.031-0.102c0.015 0 0.051 0.046 0.082 0.102zM16.976 10.648c-0.051 0.046-0.056 0.041-0.026-0.031 0.015-0.051 0.046-0.077 0.061-0.061s0 0.056-0.036 0.092zM17.779 10.597c0.036 0.026 0.051 0.066 0.031 0.092-0.015 0.031-0.061 0.026-0.112-0.015-0.066-0.056-0.072-0.056-0.036 0.005 0.031 0.051 0.020 0.061-0.026 0.031-0.041-0.026-0.056-0.020-0.031 0.015 0.015 0.031 0.087 0.046 0.158 0.031 0.128-0.020 0.174 0.031 0.276 0.307 0.051 0.123 0.046 0.123-0.097 0.061-0.194-0.082-0.47-0.44-0.404-0.521 0.056-0.066 0.138-0.066 0.24-0.005zM15.295 11.001c0.112 0.097 0.353 0.552 0.286 0.552-0.056 0-0.327-0.194-0.47-0.337-0.189-0.184-0.020-0.378 0.184-0.215zM17.073 11.062c0 0.097-0.072 0.179-0.291 0.332-0.158 0.118-0.297 0.199-0.312 0.189-0.010-0.015 0.026-0.087 0.082-0.169 0.051-0.077 0.118-0.194 0.138-0.261 0.031-0.112 0.174-0.204 0.322-0.21 0.031-0.005 0.061 0.051 0.061 0.118zM14.891 11.364c0.434 0.225 0.695 0.455 0.726 0.649 0.107 0.634 0.348 1.35 0.445 1.319 0.092-0.031 0.291-0.578 0.378-1.033 0.082-0.419 0.102-0.46 0.296-0.619 0.256-0.204 0.675-0.434 0.803-0.434 0.138 0 0.118 0.102-0.015 0.107-0.112 0-0.112 0.005-0.015 0.051 0.082 0.041 0.072 0.046-0.051 0.026-0.087-0.015-0.189-0.005-0.23 0.026-0.056 0.031-0.061 0.046-0.010 0.046 0.036 0 0.056 0.015 0.046 0.036-0.015 0.026 0.046 0.046 0.133 0.051 0.138 0.005 0.148 0 0.061-0.041s-0.087-0.046 0.026-0.020c0.072 0.010 0.158 0.026 0.194 0.026 0.031 0 0.061 0.036 0.061 0.077 0 0.061-0.020 0.066-0.092 0.031-0.128-0.066-0.44 0.082-0.685 0.322-0.138 0.143-0.225 0.296-0.322 0.603-0.138 0.419-0.245 0.634-0.373 0.741-0.056 0.051-0.041 0.066 0.097 0.087 0.097 0.015 0.235 0.020 0.312 0.010s0.128 0 0.118 0.026c-0.015 0.020 0 0.056 0.031 0.077 0.036 0.020 0.046 0.015 0.031-0.015-0.020-0.031 0.005-0.087 0.051-0.123 0.077-0.061 0.082-0.061 0.051 0.015-0.020 0.061-0.010 0.077 0.041 0.056 0.041-0.015 0.061-0.051 0.041-0.082s0-0.041 0.056-0.020c0.046 0.020 0.072 0.015 0.056-0.010s-0.005-0.061 0.020-0.077c0.026-0.015 0.056 0.020 0.072 0.082 0.041 0.158-0.164 0.414-0.516 0.644-0.164 0.102-0.378 0.25-0.486 0.332-0.194 0.148-0.194 0.148-0.307 0.051-0.061-0.051-0.281-0.204-0.486-0.342-0.389-0.261-0.639-0.547-0.588-0.685 0.020-0.051 0.010-0.066-0.026-0.041-0.036 0.020-0.061 0.005-0.061-0.041 0-0.092 0.041-0.102 0.148-0.036 0.036 0.026 0.056 0.066 0.036 0.097-0.015 0.031-0.010 0.066 0.020 0.087 0.026 0.015 0.051-0.005 0.051-0.051s0.026-0.066 0.051-0.051c0.031 0.020 0.041 0.046 0.031 0.066-0.026 0.046 0.404 0.066 0.634 0.031 0.148-0.026 0.164-0.041 0.097-0.087-0.118-0.087-0.276-0.414-0.404-0.843-0.102-0.332-0.143-0.399-0.368-0.578-0.271-0.215-0.44-0.276-0.603-0.235-0.148 0.041-0.123-0.061 0.031-0.118 0.158-0.061 0.291-0.061 0.148 0-0.118 0.051-0.026 0.066 0.102 0.020 0.066-0.026 0.072-0.041 0.015-0.077-0.051-0.036-0.051-0.046 0.010-0.046 0.133-0.005-0.056-0.102-0.194-0.102-0.066 0-0.102-0.020-0.087-0.051 0.046-0.077 0.138-0.061 0.399 0.066zM14.686 11.435c-0.036 0.010-0.097 0.010-0.128 0-0.036-0.015-0.010-0.026 0.061-0.026s0.097 0.010 0.066 0.026zM14.119 11.88c-0.026 0.496 0.036 0.736 0.256 1.022 0.153 0.189 0.153 0.194 0.036 0.158-0.23-0.072-0.389-0.174-0.552-0.358-0.164-0.189-0.22-0.348-0.082-0.23 0.066 0.056 0.066 0.041 0-0.118-0.092-0.225-0.102-0.598-0.010-0.721 0.056-0.077 0.061-0.056 0.046 0.123-0.010 0.118 0.005 0.24 0.036 0.271 0.041 0.041 0.056 0.031 0.056-0.041 0-0.082 0.189-0.537 0.225-0.537 0.005 0 0 0.194-0.010 0.429zM18.096 11.655c0.056 0.107 0.102 0.235 0.102 0.281 0 0.041 0.026 0.077 0.056 0.077 0.036 0 0.051-0.087 0.036-0.23-0.015-0.199-0.005-0.22 0.046-0.143 0.077 0.102 0.087 0.516 0.015 0.705-0.036 0.087-0.036 0.123 0 0.102 0.107-0.066 0.046 0.082-0.112 0.256-0.148 0.174-0.48 0.383-0.603 0.383-0.026 0 0.031-0.102 0.128-0.23s0.194-0.317 0.215-0.424c0.046-0.23 0.046-0.649 0-0.843-0.051-0.199-0.005-0.174 0.118 0.066zM14.952 12.074c0.184 0.179 0.245 0.286 0.322 0.578 0.056 0.194 0.118 0.399 0.138 0.455 0.036 0.082 0.026 0.087-0.082 0.056-0.21-0.061-0.491-0.281-0.68-0.527-0.102-0.128-0.184-0.25-0.184-0.276s-0.020-0.031-0.051-0.015c-0.066 0.041-0.066-0.261 0-0.389 0.092-0.164 0.291-0.118 0.537 0.118zM17.677 11.921c0.036 0.036 0.061 0.164 0.061 0.291 0 0.174-0.015 0.215-0.051 0.158-0.026-0.041-0.051-0.051-0.051-0.020 0 0.189-0.7 0.838-0.895 0.838-0.041 0-0.020-0.143 0.061-0.45 0.112-0.389 0.153-0.47 0.358-0.665 0.23-0.215 0.404-0.266 0.516-0.153zM17.344 13.265c-0.015 0.046-0.041 0.072-0.051 0.056-0.015-0.015-0.010-0.046 0.010-0.077 0.046-0.082 0.077-0.066 0.041 0.020zM14.518 14.4c-0.245 0.194-0.649 0.573-0.603 0.578 0.020 0 0.118-0.072 0.22-0.158 0.271-0.24 0.215-0.082-0.077 0.204-0.138 0.138-0.256 0.271-0.256 0.291 0 0.056-0.256 0.276-0.322 0.281-0.036 0-0.015 0.026 0.046 0.051 0.056 0.031 0.133 0.133 0.169 0.23 0.087 0.245 0.419 0.644 0.69 0.843 0.128 0.092 0.225 0.174 0.215 0.184-0.041 0.041-0.521-0.235-0.792-0.445-0.261-0.21-0.721-0.772-0.721-0.889 0-0.031 0.077-0.097 0.169-0.148 0.087-0.051 0.348-0.266 0.573-0.475 0.399-0.378 0.777-0.685 0.838-0.685 0.015 0-0.051 0.061-0.148 0.138zM18.213 14.886c0.261 0.245 0.547 0.486 0.639 0.537 0.087 0.046 0.164 0.112 0.164 0.138 0 0.107-0.332 0.557-0.583 0.787-0.148 0.133-0.414 0.317-0.588 0.414-0.348 0.184-0.48 0.189-0.189 0.010 0.24-0.148 0.573-0.532 0.726-0.833 0.066-0.133 0.164-0.261 0.21-0.291 0.051-0.031 0.066-0.056 0.031-0.056-0.031 0-0.133-0.087-0.23-0.189-0.092-0.102-0.256-0.276-0.363-0.389-0.23-0.235-0.215-0.302 0.026-0.138 0.128 0.087 0.107 0.051-0.087-0.138-0.138-0.138-0.322-0.302-0.409-0.363l-0.153-0.118 0.169 0.092c0.097 0.051 0.383 0.291 0.639 0.537zM15.341 14.492c0.026-0.020 0.046-0.005 0.046 0.020 0 0.031 0.031 0.056 0.072 0.056s0.112 0.036 0.153 0.082c0.046 0.041 0.082 0.066 0.082 0.046 0-0.015 0.066 0.005 0.148 0.051 0.153 0.077 0.414 0.087 0.414 0.015 0-0.036 0.21-0.118 0.271-0.102 0.020 0.005 0.036-0.015 0.036-0.046 0-0.026 0.026-0.036 0.051-0.020 0.031 0.015 0.051 0.010 0.051-0.015s0.056-0.087 0.128-0.133c0.118-0.077 0.128-0.077 0.174 0.015 0.046 0.082 0.010 0.112-0.266 0.256-0.322 0.164-0.322 0.164 0.184 0.082 0.276-0.046 0.235 0.056-0.051 0.118l-0.245 0.051 0.281 0.010 0.281 0.015-0.23 0.031-0.23 0.036 0.24 0.041c0.286 0.051 0.281 0.138 0 0.107l-0.189-0.026 0.204 0.077c0.225 0.087 0.25 0.087-0.496-0.031-0.317-0.051-0.48-0.051-0.792 0-0.751 0.118-0.726 0.118-0.501 0.031l0.204-0.077-0.189 0.026c-0.107 0.010-0.194 0-0.194-0.020s0.087-0.061 0.194-0.092l0.189-0.051-0.199-0.010c-0.112 0-0.184-0.020-0.164-0.041s0.133-0.031 0.25-0.031l0.215 0.010-0.189-0.056c-0.107-0.026-0.194-0.072-0.194-0.102 0-0.026 0.041-0.036 0.092-0.026 0.179 0.051 0.47 0.092 0.47 0.066 0-0.015-0.112-0.087-0.256-0.158-0.24-0.123-0.307-0.215-0.22-0.302 0.020-0.015 0.056 0 0.082 0.046 0.020 0.041 0.061 0.066 0.092 0.051zM14.569 14.528c-0.041 0.036-0.102 0.102-0.143 0.143-0.061 0.066-0.066 0.066-0.031 0 0.061-0.128 0.133-0.204 0.189-0.204 0.031 0 0.026 0.031-0.015 0.061zM12.933 15.136c-0.317 0.189-1.534 1.528-1.39 1.528 0.026 0 0.215-0.066 0.414-0.153 0.204-0.082 0.455-0.164 0.557-0.184 0.169-0.026 0.153-0.005-0.194 0.199-0.383 0.23-0.787 0.557-1.12 0.915-0.097 0.107-0.21 0.194-0.24 0.194-0.061 0-0.424-0.44-0.731-0.889-0.199-0.286-0.24-0.23 0.465-0.593 0.271-0.143 0.511-0.281 0.527-0.307 0.066-0.107-0.44-0.046-1.125 0.133-0.24 0.061 0.353-0.256 0.823-0.44 0.67-0.261 1.217-0.389 2.142-0.506 0.031 0-0.031 0.046-0.128 0.102zM19.88 15.162c0.235 0.041 0.613 0.138 0.843 0.21 0.434 0.138 1.39 0.562 1.355 0.603-0.026 0.026-0.588-0.107-0.711-0.169-0.041-0.020-0.189-0.026-0.332-0.010l-0.25 0.026 0.557 0.291c0.312 0.164 0.593 0.317 0.634 0.343 0.061 0.041 0.020 0.128-0.22 0.48-0.353 0.521-0.557 0.726-0.67 0.68-0.046-0.015-0.097-0.072-0.112-0.123-0.051-0.179-0.976-0.884-1.462-1.119-0.235-0.107-0.245-0.118-0.087-0.087 0.097 0.015 0.394 0.112 0.659 0.204s0.491 0.164 0.501 0.153c0.010-0.005-0.164-0.23-0.389-0.496-0.399-0.48-0.782-0.864-1.027-1.027l-0.128-0.087 0.204 0.026c0.112 0.015 0.399 0.061 0.634 0.102zM16.751 15.53c0.204 0.107 0.424 0.348 0.424 0.465 0 0.066-0.194-0.020-0.281-0.128-0.097-0.118-0.414-0.169-0.92-0.153-0.496 0.015-0.792 0.082-0.792 0.174 0 0.026-0.056 0.072-0.128 0.102-0.148 0.066-0.153 0.056-0.051-0.143 0.077-0.148 0.337-0.332 0.578-0.414 0.25-0.082 0.935-0.026 1.171 0.097zM16.291 16.93c0.194 0.21 0.337 0.486 0.291 0.562-0.020 0.036-0.015 0.041 0.020 0.020 0.041-0.026 0.061 0.010 0.061 0.092 0 0.102-0.026 0.133-0.118 0.133-0.066 0-0.158 0.031-0.21 0.066-0.082 0.056-0.056 0.077 0.194 0.153 0.158 0.051 0.286 0.102 0.286 0.112s-0.097 0.005-0.215-0.005c-0.194-0.015-0.199-0.015-0.077 0.026 0.235 0.082 0.67 0.317 0.716 0.394 0.026 0.041 0.061 0.061 0.082 0.046 0.026-0.010 0.072 0.010 0.102 0.046 0.102 0.123-0.026 0.138-0.276 0.031-0.445-0.189-0.849-0.271-1.227-0.24-0.348 0.031-0.915 0.194-1.237 0.358l-0.158 0.082 0.056-0.123c0.041-0.082 0.072-0.102 0.097-0.061s0.041 0.036 0.041-0.020c0-0.046 0.041-0.118 0.087-0.153 0.077-0.061 0.082-0.061 0.041 0.005-0.020 0.041 0.015 0.031 0.082-0.031 0.158-0.138 0.204-0.164 0.521-0.281l0.266-0.102-0.215 0.026c-0.123 0.010-0.22 0.010-0.22 0s0.133-0.056 0.291-0.102c0.266-0.077 0.281-0.092 0.194-0.153-0.087-0.066-0.194-0.092-0.291-0.077-0.020 0-0.031-0.041-0.026-0.097s0.026-0.102 0.051-0.102c0.026 0 0.036-0.031 0.020-0.066-0.051-0.143 0.368-0.7 0.527-0.7 0.046 0 0.153 0.077 0.24 0.164zM13.955 17.191c0-0.066 0.128-0.061 0.189 0.010 0.020 0.020 0.010 0.026-0.026 0.005s-0.077-0.005-0.092 0.036c-0.015 0.041-0.066 0.072-0.112 0.066-0.107-0.020-0.271 0.077-0.235 0.133 0.015 0.026 0.010 0.041-0.015 0.031-0.072-0.015-0.424 0.22-0.48 0.322-0.031 0.061-0.107 0.097-0.215 0.102h-0.164l0.153 0.077c0.102 0.051 0.189 0.158 0.245 0.302 0.102 0.25 0.608 1.022 0.849 1.303 0.087 0.097 0.143 0.184 0.133 0.194-0.041 0.041-0.486-0.307-0.716-0.562-0.256-0.281-0.665-0.864-0.813-1.16-0.092-0.169-0.087-0.169 0.056-0.322 0.261-0.281 0.68-0.516 0.92-0.521 0.123-0.005 0.22-0.031 0.22-0.056 0-0.031 0.026-0.015 0.051 0.026s0.051 0.051 0.051 0.015zM18.796 17.283c0.123 0.061 0.348 0.22 0.491 0.353l0.266 0.245-0.123 0.22c-0.184 0.337-0.562 0.859-0.823 1.14-0.225 0.245-0.593 0.542-0.67 0.542-0.020 0 0.118-0.21 0.312-0.465 0.194-0.261 0.44-0.649 0.547-0.864 0.138-0.281 0.24-0.419 0.348-0.475l0.153-0.082h-0.138c-0.077-0.005-0.225-0.082-0.348-0.184-0.118-0.097-0.235-0.179-0.266-0.179-0.026 0-0.031-0.026-0.015-0.051 0.015-0.031 0.005-0.056-0.020-0.056-0.133-0.015-0.153-0.020-0.189-0.061-0.020-0.020-0.010-0.036 0.020-0.036 0.123 0 0.056-0.077-0.077-0.087-0.097-0.005-0.112 0.005-0.061 0.041 0.046 0.031 0.020 0.036-0.082 0.015-0.184-0.041-0.23-0.072-0.107-0.072 0.046 0 0.077-0.020 0.061-0.046-0.056-0.087 0.496-0.010 0.721 0.102zM14.042 17.861c-0.051 0.041-0.087 0.082-0.077 0.097s0 0.041-0.020 0.061c-0.015 0.020-0.026-0.005-0.020-0.051s0.046-0.107 0.087-0.133c0.112-0.072 0.133-0.051 0.031 0.026zM13.833 18.127c-0.005 0.072-0.041 0.148-0.082 0.174-0.041 0.031-0.056 0.051-0.031 0.051s0.015 0.031-0.015 0.066c-0.031 0.041-0.041 0.082-0.026 0.097 0.010 0.015-0.015 0.041-0.061 0.061-0.061 0.020-0.077 0.010-0.051-0.046 0.015-0.041 0-0.077-0.036-0.077-0.046 0-0.041-0.015 0.005-0.046 0.041-0.020 0.072-0.061 0.077-0.087s0.026-0.041 0.051-0.036c0.020 0.010 0.041-0.010 0.041-0.036 0.015-0.102 0.020-0.128 0.061-0.194 0.061-0.092 0.072-0.077 0.066 0.072zM18.438 18.234c0.143 0.174 0.158 0.215 0.097 0.266s-0.092 0.015-0.194-0.184c-0.061-0.133-0.138-0.266-0.169-0.286-0.031-0.026-0.020-0.036 0.020-0.026s0.148 0.112 0.245 0.23zM16.92 18.863c0.128 0.061 0.245 0.143 0.266 0.174s0.041 0.041 0.041 0.020c0-0.020 0.077 0.036 0.174 0.128 0.138 0.128 0.158 0.174 0.097 0.204-0.041 0.026-0.102 0.020-0.148-0.020-0.107-0.087-0.91-0.25-1.247-0.25-0.353 0-0.864 0.082-1.14 0.184-0.118 0.041-0.235 0.082-0.266 0.087-0.026 0.010-0.082 0.031-0.118 0.056-0.036 0.020-0.082 0.026-0.097 0.010s0.031-0.056 0.107-0.087c0.112-0.051 0.123-0.077 0.072-0.143-0.036-0.046-0.041-0.066-0.020-0.046 0.026 0.020 0.082-0.005 0.128-0.056s0.164-0.133 0.261-0.184c0.363-0.189 0.578-0.23 1.125-0.215 0.44 0.015 0.578 0.041 0.767 0.138zM17.585 18.76c0 0.026-0.010 0.051-0.020 0.051-0.015 0-0.041-0.026-0.056-0.051-0.015-0.031-0.005-0.051 0.020-0.051 0.031 0 0.056 0.020 0.056 0.051zM13.311 19.399c-0.061 0.199-0.332 0.695-0.429 0.792-0.077 0.077-0.082 0.102-0.031 0.102 0.041 0 0.179 0.158 0.307 0.348 0.123 0.189 0.322 0.455 0.44 0.588s0.184 0.24 0.153 0.24c-0.077 0-1.227-1.155-1.227-1.227 0-0.031 0.092-0.174 0.204-0.322 0.107-0.148 0.25-0.378 0.307-0.511 0.097-0.215 0.118-0.235 0.204-0.174 0.072 0.041 0.092 0.092 0.072 0.164zM19.123 19.486c0.087 0.179 0.235 0.414 0.327 0.532l0.174 0.21-0.455 0.48c-0.419 0.45-0.895 0.874-0.792 0.705 0.026-0.041 0.148-0.199 0.271-0.353 0.128-0.153 0.296-0.389 0.378-0.521s0.184-0.245 0.225-0.245c0.056 0 0.046-0.031-0.036-0.118-0.123-0.128-0.404-0.685-0.404-0.808 0-0.066 0.092-0.199 0.138-0.199 0.005 0 0.087 0.143 0.174 0.317zM16.69 19.45l0.204 0.066-0.46-0.041 0.281 0.082c0.394 0.107 0.567 0.194 0.716 0.358 0.072 0.077 0.097 0.123 0.066 0.102-0.036-0.020-0.066-0.010-0.066 0.026s-0.041 0.031-0.123-0.020c-0.199-0.133-0.889-0.291-1.252-0.291-0.368 0-0.895 0.112-1.201 0.261-0.112 0.051-0.215 0.087-0.225 0.072-0.015-0.015 0-0.026 0.036-0.026s0.051-0.020 0.031-0.046c-0.015-0.026 0.031-0.112 0.102-0.189s0.128-0.123 0.128-0.102c0 0.020 0.051 0.005 0.118-0.031 0.061-0.031 0.23-0.092 0.368-0.128l0.256-0.066-0.46 0.041 0.204-0.066c0.112-0.036 0.399-0.066 0.639-0.066s0.527 0.031 0.639 0.066zM16.588 20.248c0.092 0.036 0.092 0.041-0.026 0.046-0.082 0.005-0.031 0.036 0.153 0.087 0.317 0.087 0.598 0.271 0.598 0.404 0 0.072-0.010 0.072-0.056 0.015-0.031-0.041-0.225-0.128-0.429-0.194-0.48-0.153-1.079-0.158-1.513-0.010-0.164 0.061-0.317 0.092-0.342 0.077s-0.061 0.010-0.077 0.051c-0.015 0.046-0.051 0.066-0.077 0.056-0.107-0.072 0.256-0.312 0.619-0.414 0.153-0.041 0.189-0.066 0.107-0.066-0.184-0.005-0.097-0.056 0.184-0.107 0.256-0.041 0.68-0.015 0.859 0.056zM16.69 21.025c0.261 0.128 0.552 0.394 0.445 0.394-0.036 0-0.061-0.020-0.061-0.041 0-0.051-0.332-0.24-0.511-0.291-0.082-0.020-0.046 0.015 0.102 0.112 0.128 0.087 0.276 0.22 0.327 0.302l0.097 0.148-0.148-0.133c-0.082-0.077-0.215-0.179-0.302-0.225-0.123-0.077-0.102-0.046 0.092 0.153 0.215 0.22 0.266 0.296 0.23 0.348-0.010 0.010 0.020 0.061 0.061 0.118 0.041 0.051 0.051 0.082 0.031 0.061-0.026-0.020-0.077 0-0.112 0.051-0.061 0.077-0.061 0.072-0.041-0.041l0.026-0.128-0.092 0.128c-0.051 0.066-0.153 0.184-0.23 0.261-0.072 0.077-0.123 0.153-0.107 0.164 0.010 0.015 0 0.041-0.031 0.061-0.031 0.015-0.056 0.005-0.056-0.031 0-0.041-0.020-0.041-0.077 0.005-0.041 0.036-0.077 0.092-0.077 0.128s-0.036 0.092-0.077 0.128c-0.046 0.041-0.077 0.046-0.077 0.010 0-0.031 0.026-0.072 0.051-0.087 0.031-0.015 0.051-0.051 0.051-0.077 0-0.072-0.169-0.107-0.225-0.051-0.041 0.041-0.031 0.046 0.031 0.026 0.061-0.026 0.082-0.010 0.066 0.061-0.010 0.051-0.020 0.107-0.020 0.128-0.005 0.026-0.031 0.041-0.061 0.041s-0.046-0.036-0.026-0.077c0.015-0.041 0.010-0.072-0.010-0.072-0.020 0.005-0.051 0-0.072-0.005-0.026-0.005-0.072-0.015-0.102-0.020-0.036-0.005-0.061-0.036-0.056-0.072 0.010-0.031-0.041-0.097-0.112-0.143s-0.174-0.164-0.235-0.261c-0.097-0.158-0.123-0.169-0.174-0.102-0.051 0.072-0.066 0.066-0.123-0.026-0.036-0.056-0.041-0.087-0.010-0.066 0.036 0.020 0.056-0.015 0.056-0.087 0-0.066 0.097-0.215 0.245-0.368 0.25-0.261 0.22-0.271-0.107-0.015-0.107 0.082-0.204 0.138-0.22 0.123-0.036-0.036 0.48-0.445 0.557-0.445 0.026 0 0.041-0.015 0.026-0.031-0.046-0.041-0.409 0.123-0.537 0.245-0.066 0.061-0.118 0.087-0.118 0.056 0-0.112 0.383-0.373 0.716-0.48 0.23-0.077 0.726-0.015 0.997 0.123zM15.678 23.172l0.056 0.215 0.020-0.358 0.133 0.409 0.020-0.153c0.015-0.097 0.031-0.128 0.051-0.077 0.015 0.041 0.051 0.123 0.072 0.179 0.036 0.097 0.041 0.092 0.061-0.026 0.031-0.21 0.112-0.245 0.118-0.051l0.005 0.179 0.056-0.215c0.087-0.302 0.148-0.337 0.112-0.066-0.031 0.261-0.005 0.23 0.077-0.097 0.031-0.118 0.072-0.21 0.082-0.194 0.066 0.066-0.424 1.942-0.491 1.902-0.056-0.036-0.23-0.624-0.358-1.201-0.056-0.266-0.118-0.542-0.133-0.613-0.046-0.21 0.051-0.061 0.118 0.169z"></path>
<path d="M17.329 10.075c-0.061 0.082-0.102 0.164-0.087 0.179 0.010 0.015 0.072-0.056 0.128-0.158 0.133-0.22 0.107-0.235-0.041-0.020z"></path>
<path d="M14.374 10.602c0.020 0.026 0.015 0.077-0.015 0.112-0.036 0.046-0.031 0.061 0.026 0.051 0.128-0.015 0.143-0.061 0.046-0.138-0.051-0.036-0.077-0.046-0.056-0.026z"></path>
<path d="M15.796 13.741c0 0.026 0.036 0.066 0.082 0.082 0.051 0.020 0.072 0.005 0.061-0.031-0.026-0.077-0.143-0.118-0.143-0.051z"></path>
<path d="M16.179 13.751c-0.015 0.026 0.005 0.051 0.046 0.051 0.046 0 0.082-0.026 0.082-0.051 0-0.031-0.020-0.051-0.046-0.051-0.031 0-0.066 0.020-0.082 0.051z"></path>
<path d="M17.329 18.607c0 0.026 0.026 0.051 0.056 0.051 0.026 0 0.036-0.026 0.020-0.051-0.015-0.031-0.041-0.051-0.056-0.051-0.010 0-0.020 0.020-0.020 0.051z"></path>
<path d="M13.7 17.283c0 0.026 0.026 0.036 0.051 0.020 0.031-0.015 0.051-0.041 0.051-0.056 0-0.010-0.020-0.020-0.051-0.020-0.026 0-0.051 0.026-0.051 0.056z"></path>
<path d="M13.613 18.377c0 0.041 0.020 0.061 0.046 0.046s0.031-0.051 0.015-0.077c-0.046-0.066-0.061-0.056-0.061 0.031z"></path>
<path d="M17.38 19.323c0 0.026 0.026 0.051 0.056 0.051 0.026 0 0.036-0.026 0.020-0.051-0.015-0.031-0.041-0.051-0.056-0.051-0.010 0-0.020 0.020-0.020 0.051z"></path>
<path d="M15.862 22.415c0 0.041 0.020 0.061 0.046 0.046s0.031-0.051 0.015-0.077c-0.046-0.066-0.061-0.056-0.061 0.031z"></path>
<path d="M15.755 23.514c0 0.072 0.010 0.097 0.026 0.061 0.010-0.031 0.010-0.092 0-0.128-0.015-0.031-0.026-0.005-0.026 0.066z"></path>
<path d="M20.243 10.321c0 0.026 0.036 0.077 0.087 0.112 0.077 0.066 0.077 0.061 0.020-0.046-0.061-0.118-0.107-0.143-0.107-0.066z"></path>
<path d="M22.528 20.606c0.036 0.036 0.077 0.051 0.092 0.036s-0.010-0.046-0.061-0.061c-0.072-0.031-0.077-0.026-0.031 0.026z"></path>
</symbol>
</defs>
</svg>
