<?xml version="1.0" standalone="no"?>
<!DOCTYPE svg PUBLIC "-//W3C//DTD SVG 20010904//EN"
 "http://www.w3.org/TR/2001/REC-SVG-20010904/DTD/svg10.dtd">
<svg version="1.0" xmlns="http://www.w3.org/2000/svg"
 width="626.000000pt" height="626.000000pt" viewBox="0 0 626.000000 626.000000"
 preserveAspectRatio="xMidYMid meet">

<g transform="translate(0.000000,626.000000) scale(0.100000,-0.100000)"
fill="#000000" stroke="none">
<path d="M0 3130 l0 -3130 3130 0 3130 0 0 3130 0 3130 -3130 0 -3130 0 0
-3130z m979 1631 c265 -212 685 -493 1036 -691 297 -168 585 -322 585 -314 0
3 -8 19 -17 37 -25 48 -23 161 4 212 11 22 30 49 42 59 11 10 32 42 44 70 13
29 38 68 56 88 17 20 31 41 31 48 0 22 -70 109 -141 173 l-70 64 56 12 c89 20
181 -16 282 -112 l32 -30 48 21 c116 49 210 49 326 0 l47 -20 43 39 c50 46
115 85 171 103 30 10 50 10 96 0 l58 -12 -88 -87 c-48 -47 -97 -101 -108 -120
l-21 -35 35 -39 c20 -22 46 -61 58 -87 12 -26 38 -66 58 -89 58 -68 71 -147
39 -238 -10 -29 -14 -53 -10 -53 11 0 155 76 409 218 672 375 1205 746 1439
1004 24 26 47 46 51 43 19 -12 33 -239 27 -460 -19 -736 -250 -1414 -575
-1686 -96 -80 -72 -83 -322 42 -122 61 -225 109 -230 107 -4 -2 -44 -57 -87
-123 -92 -140 -179 -245 -236 -286 -22 -16 -43 -29 -47 -29 -4 0 -32 33 -63
73 -31 39 -77 92 -102 117 l-47 45 21 -40 c12 -22 21 -49 21 -60 0 -11 -27
-60 -60 -109 l-60 -89 21 -46 c24 -55 89 -125 142 -153 l39 -19 -69 -72 c-194
-202 -345 -308 -481 -339 -39 -8 -58 -19 -70 -37 -9 -14 -28 -42 -44 -62 -19
-25 -35 -68 -52 -140 -13 -57 -36 -140 -51 -184 -28 -86 -103 -245 -116 -245
-11 0 -86 158 -114 245 -15 44 -38 127 -51 185 -17 73 -33 116 -52 140 -15 19
-35 47 -44 61 -12 18 -31 29 -70 37 -136 31 -291 141 -486 344 l-64 67 39 19
c55 29 112 89 140 148 l24 52 -66 96 -65 97 26 52 26 52 -42 -40 c-23 -22 -69
-75 -102 -117 -34 -43 -65 -78 -69 -78 -4 0 -29 17 -56 39 -62 48 -147 154
-238 294 -38 59 -74 107 -80 107 -5 0 -109 -50 -229 -110 -243 -121 -222 -117
-306 -52 -285 225 -505 780 -575 1451 -23 222 -17 622 11 700 3 10 37 -18 101
-83 53 -54 140 -133 192 -175z m2830 -434 c0 -9 -2 -8 -6 1 -2 6 -10 9 -15 6
-7 -4 -8 -2 -4 5 9 13 26 5 25 -12z m97 -50 c1 -9 -2 -15 -7 -11 -5 3 -7 10
-3 15 3 6 -2 9 -12 7 -12 -2 -18 2 -16 11 2 8 -3 11 -12 8 -16 -6 -30 6 -19
17 10 10 66 -27 69 -47z m-1606 19 c0 -2 -7 -7 -16 -10 -8 -3 -12 -2 -9 4 6
10 25 14 25 6z m1633 -31 c-3 -9 -8 -14 -10 -11 -3 3 -2 9 2 15 9 16 15 13 8
-4z m80 -17 c-11 -13 -19 -31 -18 -40 2 -10 -2 -18 -8 -18 -8 0 -8 -3 -2 -8
16 -11 14 -60 -2 -66 -12 -5 -14 4 -12 43 2 27 -2 55 -8 63 -23 30 -24 37 -3
33 11 -2 24 -6 29 -9 5 -3 14 1 21 9 7 8 15 15 18 15 3 0 -4 -10 -15 -22z
m557 -1446 c0 -4 -15 -13 -32 -21 -18 -8 -36 -19 -40 -25 -6 -8 -8 -8 -8 0 0
15 30 41 55 47 11 2 21 5 23 6 1 0 2 -2 2 -7z m-2789 -99 c12 -16 12 -17 -2
-6 -9 7 -20 9 -24 5 -5 -4 -5 -1 -1 6 9 16 11 15 27 -5z m63 -43 c3 -8 10 -25
16 -38 7 -18 7 -21 -3 -16 -9 6 -8 3 1 -8 9 -11 10 -18 2 -23 -11 -7 -23 15
-19 36 4 19 -10 59 -21 59 -4 0 -10 7 -14 15 -4 12 -2 13 14 3 10 -7 21 -19
24 -28z m2459 -197 c-2 -38 -5 -82 -6 -100 -2 -17 1 -29 5 -27 4 3 9 -2 9 -10
1 -9 2 -21 3 -28 0 -6 9 -12 19 -14 23 -3 36 -14 17 -14 -9 0 -7 -5 6 -15 18
-14 17 -14 -8 -4 -16 7 -28 15 -28 19 0 16 -60 3 -96 -21 -21 -14 -52 -34 -69
-44 l-30 -18 35 37 c19 20 45 39 57 42 13 4 23 10 23 14 0 13 39 19 43 7 2 -6
6 -3 10 6 3 9 1 19 -5 23 -7 5 -8 2 -3 -7 5 -8 5 -11 0 -7 -4 4 -7 53 -6 110
2 89 7 110 26 118 1 0 -1 -30 -2 -67z m-2388 -191 c-6 -7 -45 9 -45 18 0 4 11
3 24 -3 14 -7 23 -13 21 -15z m2517 -54 c-7 -7 -17 -6 -32 2 -17 9 -20 14 -9
20 17 11 55 -8 41 -22z m-2394 -14 c2 -1 -9 -1 -23 -1 -14 0 -28 3 -31 8 -3 5
3 6 12 2 13 -5 15 -3 9 8 -7 12 -6 12 11 -1 10 -8 20 -15 22 -16z m52 -34 c3
-3 12 -5 20 -5 8 0 14 -6 12 -13 -1 -8 5 -11 22 -6 24 6 44 -10 27 -21 -6 -3
-8 -12 -4 -20 4 -11 1 -13 -10 -9 -9 3 -13 12 -10 20 3 8 -1 14 -7 14 -7 0
-29 12 -49 27 -20 16 -40 27 -44 25 -5 -1 -6 2 -2 8 6 10 22 3 45 -20z m1895
-286 c-13 -14 -15 -8 -15 64 0 55 4 82 13 85 20 6 22 -129 2 -149z m-5 -61
c-11 -17 -11 -17 -6 0 3 10 6 24 7 30 0 9 2 9 5 0 3 -7 0 -20 -6 -30z m45 -72
c-6 -5 -25 10 -25 20 0 5 6 4 14 -3 8 -7 12 -15 11 -17z m-1840 1 c-3 -3 -11
0 -18 7 -9 10 -8 11 6 5 10 -3 15 -9 12 -12z m545 -12 c0 -5 -4 -10 -9 -10 -5
0 -16 -3 -25 -6 -9 -3 -16 -1 -16 4 0 9 16 17 43 21 4 0 7 -3 7 -9z m1217 4
c-3 -3 -12 -4 -19 -1 -8 3 -5 6 6 6 11 1 17 -2 13 -5z m-1274 -28 c4 -10 0
-14 -13 -13 -14 1 -16 4 -8 14 13 16 15 16 21 -1z m883 -33 c22 -12 41 -29 41
-37 0 -11 -5 -13 -19 -5 -10 6 -15 15 -12 21 5 8 1 9 -10 5 -11 -5 -15 -3 -10
5 5 8 2 9 -10 5 -10 -4 -15 -3 -11 3 3 6 -1 10 -9 10 -8 0 -17 4 -20 9 -9 14
14 7 60 -16z m298 9 c3 -5 -1 -9 -9 -9 -8 0 -12 4 -9 9 3 4 7 8 9 8 2 0 6 -4
9 -8z m-1224 -6 c0 -3 -4 -8 -10 -11 -5 -3 -10 -1 -10 4 0 6 5 11 10 11 6 0
10 -2 10 -4z m1195 -15 c3 -5 0 -13 -6 -17 -7 -4 -9 -3 -5 4 3 5 0 13 -6 15
-9 4 -10 6 -1 6 6 1 14 -3 18 -8z m-35 -12 c0 -5 -5 -7 -12 -3 -8 5 -9 1 -4
-12 5 -14 4 -16 -5 -7 -6 6 -8 16 -5 22 9 14 26 14 26 0z"/>
<path d="M703 4893 c-4 -32 -7 -148 -7 -258 3 -569 156 -1171 384 -1520 51
-77 178 -214 230 -248 25 -16 30 -14 210 76 102 51 208 102 236 114 l52 21 80
-122 c94 -144 187 -261 233 -295 l33 -24 35 44 c19 24 82 91 140 149 81 80
123 114 179 142 76 39 81 39 126 6 17 -13 15 -16 -30 -33 -123 -46 -245 -168
-230 -230 3 -12 31 -58 62 -100 l55 -78 -15 -42 c-27 -70 -72 -131 -122 -166
l-47 -32 110 -107 c157 -153 286 -235 410 -260 37 -8 56 -18 64 -33 6 -12 28
-44 49 -72 24 -32 40 -66 45 -95 18 -112 125 -430 144 -430 22 0 129 319 146
432 4 28 17 59 32 75 13 15 35 46 49 69 22 38 30 43 91 58 128 31 239 103 396
255 l109 106 -45 32 c-49 36 -97 101 -123 169 l-17 44 40 52 c64 85 86 126 79
152 -17 67 -117 154 -230 200 l-54 22 38 22 38 22 72 -37 c57 -28 98 -60 185
-147 61 -61 125 -129 142 -150 l30 -39 31 22 c44 31 150 166 238 303 l75 116
52 -21 c29 -11 135 -63 236 -114 l184 -94 38 26 c62 44 163 156 224 248 226
348 376 946 379 1517 0 107 -3 221 -7 253 l-9 58 -66 -63 c-207 -194 -486
-399 -892 -653 -251 -157 -695 -407 -951 -536 l-124 -62 45 49 c113 121 131
282 41 356 -15 13 -35 44 -45 70 -10 26 -38 70 -63 99 l-47 51 20 36 c10 19
52 71 93 114 l73 78 -35 0 c-45 0 -122 -42 -195 -107 l-59 -52 -47 24 c-108
55 -213 55 -329 2 l-53 -24 -59 54 c-71 63 -145 103 -193 103 l-34 0 74 -79
c41 -44 83 -96 92 -116 l17 -36 -45 -50 c-24 -27 -52 -71 -62 -97 -10 -26 -30
-57 -45 -69 -35 -29 -59 -91 -59 -152 0 -63 46 -156 105 -210 25 -23 42 -41
38 -41 -10 0 -375 190 -523 273 -641 357 -1112 673 -1407 944 l-101 94 -9 -58z
m215 -391 c55 -65 204 -194 342 -297 58 -43 111 -83 119 -89 8 -6 -6 19 -31
55 -46 68 -89 150 -114 221 l-13 39 32 -26 c123 -101 295 -216 499 -333 262
-152 764 -408 972 -498 l89 -38 -68 -23 c-38 -13 -77 -23 -88 -23 -10 0 -80
33 -155 74 -75 40 -162 87 -192 103 -30 17 -122 65 -203 107 -82 42 -164 86
-183 97 -94 53 -324 165 -309 151 44 -43 362 -265 732 -512 62 -41 113 -77
113 -80 0 -3 -25 -10 -56 -16 -46 -8 -60 -7 -82 6 -15 9 -85 47 -157 85 -71
37 -215 114 -320 170 -224 121 -275 147 -275 141 0 -4 336 -313 476 -438 35
-31 61 -59 56 -61 -4 -3 -50 -19 -102 -37 -108 -37 -205 -79 -402 -173 l-136
-65 -39 19 c-21 10 -60 46 -87 79 -27 33 -51 58 -53 56 -4 -3 23 -86 52 -161
12 -31 -81 62 -131 131 -77 108 -157 285 -208 463 -24 82 -66 276 -66 301 0 7
17 0 37 -16 40 -30 137 -73 166 -74 15 0 10 10 -23 47 -59 67 -104 145 -151
263 -39 98 -99 312 -114 410 l-7 45 18 -25 c10 -14 38 -49 62 -78z m4497 -44
c-61 -272 -141 -456 -253 -580 -24 -27 -30 -38 -19 -38 30 0 125 40 166 70 50
37 51 34 20 -108 -70 -326 -194 -596 -338 -737 -28 -27 -51 -47 -51 -43 0 3
11 30 23 59 13 30 27 69 30 87 6 32 6 31 -36 -20 -24 -29 -63 -65 -88 -81
l-45 -28 -167 80 c-163 78 -351 157 -434 182 -24 7 -43 15 -43 19 0 3 36 40
81 81 45 41 104 95 133 122 28 26 112 102 187 170 75 67 135 123 134 125 -3 3
-283 -142 -427 -223 -38 -20 -68 -33 -68 -28 0 4 -4 3 -8 -4 -4 -6 -68 -44
-141 -83 -131 -70 -136 -72 -188 -65 -29 3 -55 9 -57 13 -2 4 118 89 267 189
266 178 537 369 567 400 8 9 -73 -30 -182 -85 -209 -108 -246 -127 -605 -318
-128 -68 -238 -124 -245 -124 -7 0 -47 10 -88 23 l-75 23 45 18 c137 54 618
294 864 430 286 159 522 309 634 403 28 25 52 42 52 39 0 -24 -86 -197 -126
-253 l-49 -68 55 39 c218 157 467 381 486 436 20 60 13 -15 -11 -122z m-2618
-55 c33 -25 118 -124 94 -109 -9 6 -12 5 -9 -5 3 -8 10 -14 18 -14 7 0 19 -11
28 -25 l14 -25 -21 25 c-30 36 -26 18 10 -45 25 -44 28 -55 15 -55 -9 0 -27
23 -42 53 -37 73 -80 133 -139 196 -51 55 -38 56 32 4z m727 5 c-60 -64 -98
-116 -141 -194 -21 -39 -43 -69 -50 -67 -7 3 -3 18 13 46 29 52 31 71 3 37
l-21 -25 20 35 c32 56 103 134 156 174 64 47 69 46 20 -6z m-278 -74 c22 -9
42 -21 46 -28 4 -6 8 -7 8 -1 0 6 4 4 9 -4 19 -30 2 -41 -41 -25 -22 8 -41 14
-42 14 -1 0 0 -19 2 -42 l3 -43 -15 31 c-7 17 -26 40 -41 52 -25 20 -29 20
-56 7 -16 -9 -38 -32 -49 -53 l-21 -37 5 43 c2 23 2 42 0 42 -3 0 -20 -7 -39
-14 -33 -14 -35 -14 -46 7 -7 12 -8 19 -4 15 4 -4 13 -1 19 8 31 41 189 58
262 28z m-79 -136 c25 -23 29 -54 13 -107 -15 -54 -2 -50 21 6 12 27 30 55 41
62 17 11 18 10 9 -7 -6 -11 -7 -22 -4 -26 3 -3 2 -6 -4 -6 -5 0 -10 -6 -10
-13 0 -17 -45 -88 -72 -111 -17 -15 -23 -17 -36 -6 -18 15 -80 115 -94 153
-20 51 24 9 48 -46 23 -56 36 -60 21 -6 -15 52 -12 81 12 106 26 28 26 28 55
1z m-341 3 c-8 -12 19 -33 29 -23 4 4 -7 -14 -25 -40 -17 -27 -36 -48 -42 -48
-6 0 -20 -8 -31 -17 -19 -17 -19 -17 -12 7 13 42 34 79 52 89 10 6 14 11 9 11
-5 0 -3 7 4 15 13 16 25 21 16 6z m144 -21 c6 -11 8 -20 6 -20 -3 0 -10 9 -16
20 -6 11 -8 20 -6 20 3 0 10 -9 16 -20z m351 -3 c-10 -9 -11 -8 -5 6 3 10 9
15 12 12 3 -3 0 -11 -7 -18z m157 10 c7 -5 10 -13 6 -18 -3 -6 -12 -5 -22 3
-13 11 -14 11 -7 -1 6 -10 4 -12 -5 -6 -8 5 -11 4 -6 -3 3 -6 17 -9 31 -6 25
4 34 -6 54 -60 10 -24 9 -24 -19 -12 -38 16 -92 86 -79 102 11 13 27 13 47 1z
m-486 -79 c22 -19 69 -108 56 -108 -11 0 -64 38 -92 66 -37 36 -4 74 36 42z
m348 -12 c0 -19 -14 -35 -57 -65 -31 -23 -58 -39 -61 -37 -2 3 5 17 16 33 10
15 23 38 27 51 6 22 34 40 63 41 6 1 12 -10 12 -23z m-427 -59 c85 -44 136
-89 142 -127 21 -124 68 -264 87 -258 18 6 57 113 74 202 16 82 20 90 58 121
50 40 132 85 157 85 27 0 23 -20 -3 -21 -22 0 -22 -1 -3 -10 16 -8 14 -9 -10
-5 -17 3 -37 1 -45 -5 -11 -6 -12 -9 -2 -9 7 0 11 -3 9 -7 -3 -5 9 -9 26 -10
27 -1 29 0 12 8 -17 8 -17 9 5 4 14 -2 31 -5 38 -5 6 0 12 -7 12 -15 0 -12 -4
-13 -18 -6 -25 13 -86 -16 -134 -63 -27 -28 -44 -58 -63 -118 -27 -82 -48
-124 -73 -145 -11 -10 -8 -13 19 -17 19 -3 46 -4 61 -2 15 2 25 0 23 -5 -3 -4
0 -11 6 -15 7 -4 9 -3 6 3 -4 6 1 17 10 24 15 12 16 12 10 -3 -4 -12 -2 -15 8
-11 8 3 12 10 8 16 -4 6 0 8 11 4 9 -4 14 -3 11 2 -3 5 -1 12 4 15 5 3 11 -4
14 -16 8 -31 -32 -81 -101 -126 -32 -20 -74 -49 -95 -65 -38 -29 -38 -29 -60
-10 -12 10 -55 40 -95 67 -76 51 -125 107 -115 134 4 10 2 13 -5 8 -7 -4 -12
-1 -12 8 0 18 8 20 29 7 7 -5 11 -13 7 -19 -3 -6 -2 -13 4 -17 5 -3 10 1 10
10 0 9 5 13 10 10 6 -4 8 -9 6 -13 -5 -9 79 -13 124 -6 29 5 32 8 19 17 -23
17 -54 81 -79 165 -20 65 -28 78 -72 113 -53 42 -86 54 -118 46 -29 -8 -24 12
6 23 31 12 57 12 29 0 -23 -10 -5 -13 20 -4 13 5 14 8 3 15 -10 7 -10 9 2 9
26 1 -11 20 -38 20 -13 0 -20 4 -17 10 9 15 27 12 78 -13z m-40 -14 c-7 -2
-19 -2 -25 0 -7 3 -2 5 12 5 14 0 19 -2 13 -5z m-111 -87 c-5 -97 7 -144 50
-200 30 -37 30 -38 7 -31 -45 14 -76 34 -108 70 -32 37 -43 68 -16 45 13 -11
13 -8 0 23 -18 44 -20 117 -2 141 11 15 12 11 9 -24 -2 -23 1 -47 7 -53 8 -8
11 -6 11 8 0 16 37 105 44 105 1 0 0 -38 -2 -84z m778 44 c11 -21 20 -46 20
-55 0 -8 5 -15 11 -15 7 0 10 17 7 45 -3 39 -1 43 9 28 15 -20 17 -101 3 -138
-7 -17 -7 -24 0 -20 21 13 9 -16 -22 -50 -29 -34 -94 -75 -118 -75 -5 0 6 20
25 45 19 25 38 62 42 83 9 45 9 127 0 165 -10 39 -1 34 23 -13z m-615 -82 c36
-35 48 -56 63 -113 11 -38 23 -78 27 -89 7 -16 5 -17 -16 -11 -41 12 -96 55
-133 103 -20 25 -36 49 -36 54 0 5 -4 6 -10 3 -13 -8 -13 51 0 76 18 32 57 23
105 -23z m533 30 c7 -7 12 -32 12 -57 0 -34 -3 -42 -10 -31 -5 8 -10 10 -10 4
0 -37 -137 -164 -175 -164 -8 0 -4 28 12 88 22 76 30 92 70 130 45 42 79 52
101 30z m-65 -263 c-3 -9 -8 -14 -10 -11 -3 3 -2 9 2 15 9 16 15 13 8 -4z
m-553 -222 c-48 -38 -127 -112 -118 -113 4 0 23 14 43 31 53 47 42 16 -15 -40
-27 -27 -50 -53 -50 -57 0 -11 -50 -54 -63 -55 -7 0 -3 -5 9 -10 11 -6 26 -26
33 -45 17 -48 82 -126 135 -165 25 -18 44 -34 42 -36 -8 -8 -102 46 -155 87
-51 41 -141 151 -141 174 0 6 15 19 33 29 17 10 68 52 112 93 78 74 152 134
164 134 3 0 -10 -12 -29 -27z m723 -95 c51 -48 107 -95 125 -105 17 -9 32 -22
32 -27 0 -21 -65 -109 -114 -154 -29 -26 -81 -62 -115 -81 -68 -36 -94 -37
-37 -2 47 29 112 104 142 163 13 26 32 51 41 57 10 6 13 11 6 11 -6 0 -26 17
-45 37 -18 20 -50 54 -71 76 -45 46 -42 59 5 27 25 -17 21 -10 -17 27 -27 27
-63 59 -80 71 l-30 23 33 -18 c19 -10 75 -57 125 -105z m-562 77 c5 4 9 1 9
-4 0 -6 6 -11 14 -11 8 0 22 -7 30 -16 9 -8 16 -13 16 -9 0 3 13 -1 29 -10 30
-15 81 -17 81 -3 0 7 41 23 53 20 4 -1 7 3 7 9 0 5 5 7 10 4 6 -3 10 -2 10 3
0 5 11 17 25 26 23 15 25 15 34 -3 9 -16 2 -22 -52 -50 -63 -32 -63 -32 36
-16 54 9 46 -11 -10 -23 l-48 -10 55 -2 55 -3 -45 -6 -45 -7 47 -8 c56 -10 55
-27 0 -21 l-37 5 40 -15 c44 -17 49 -17 -97 6 -62 10 -94 10 -155 0 -147 -23
-142 -23 -98 -6 l40 15 -37 -5 c-21 -2 -38 0 -38 4 0 4 17 12 38 18 l37 10
-39 2 c-22 0 -36 4 -32 8 4 4 26 6 49 6 l42 -2 -37 11 c-21 5 -38 14 -38 20 0
5 8 7 18 5 35 -10 92 -18 92 -13 0 3 -22 17 -50 31 -47 24 -60 42 -43 59 4 3
11 0 16 -9 4 -8 12 -13 18 -10z m-151 -7 c-8 -7 -20 -20 -28 -28 -12 -13 -13
-13 -6 0 12 25 26 40 37 40 6 0 5 -6 -3 -12z m-320 -119 c-62 -37 -300 -299
-272 -299 5 0 42 13 81 30 40 16 89 32 109 36 33 5 30 1 -38 -39 -75 -45 -154
-109 -219 -179 -19 -21 -41 -38 -47 -38 -12 0 -83 86 -143 174 -39 56 -47 45
91 116 53 28 100 55 103 60 13 21 -86 9 -220 -26 -47 -12 69 50 161 86 131 51
238 76 419 99 6 0 -6 -9 -25 -20z m1359 -5 c46 -8 120 -27 165 -41 85 -27 272
-110 265 -118 -5 -5 -115 21 -139 33 -8 4 -37 5 -65 2 l-49 -5 109 -57 c61
-32 116 -62 124 -67 12 -8 4 -25 -43 -94 -69 -102 -109 -142 -131 -133 -9 3
-19 14 -22 24 -10 35 -191 173 -286 219 -46 21 -48 23 -17 17 19 -3 77 -22
129 -40 52 -18 96 -32 98 -30 2 1 -32 45 -76 97 -78 94 -153 169 -201 201
l-25 17 40 -5 c22 -3 78 -12 124 -20z m-612 -72 c40 -21 83 -68 83 -91 0 -13
-38 4 -55 25 -19 23 -81 33 -180 30 -97 -3 -155 -16 -155 -34 0 -5 -11 -14
-25 -20 -29 -13 -30 -11 -10 28 15 29 66 65 113 81 49 16 183 5 229 -19z m-90
-274 c38 -41 66 -95 57 -110 -4 -7 -3 -8 4 -4 8 5 12 -2 12 -18 0 -20 -5 -26
-23 -26 -13 0 -31 -6 -41 -13 -16 -11 -11 -15 38 -30 31 -10 56 -20 56 -22 0
-2 -19 -1 -42 1 -38 3 -39 3 -15 -5 46 -16 131 -62 140 -77 5 -8 12 -12 16 -9
5 2 14 -2 20 -9 20 -24 -5 -27 -54 -6 -87 37 -166 53 -240 47 -68 -6 -179 -38
-242 -70 l-31 -16 11 24 c8 16 14 20 19 12 5 -8 8 -7 8 4 0 9 8 23 17 30 15
12 16 12 8 -1 -4 -8 3 -6 16 6 31 27 40 32 102 55 l52 20 -42 -5 c-24 -2 -43
-2 -43 0 0 2 26 11 57 20 52 15 55 18 38 30 -17 13 -38 18 -57 15 -4 0 -6 8
-5 19 1 11 5 20 10 20 5 0 7 6 4 13 -10 28 72 137 103 137 9 0 30 -15 47 -32z
m-457 -51 c0 13 25 12 37 -2 4 -4 2 -5 -5 -1 -7 4 -15 1 -18 -7 -3 -8 -13 -14
-22 -13 -21 4 -53 -15 -46 -26 3 -5 2 -8 -3 -6 -14 3 -83 -43 -94 -63 -6 -12
-21 -19 -42 -20 l-32 0 30 -15 c20 -10 37 -31 48 -59 20 -49 119 -200 166
-255 17 -19 28 -36 26 -38 -8 -8 -95 60 -140 110 -50 55 -130 169 -159 227
-18 33 -17 33 11 63 51 55 133 101 180 102 24 1 43 6 43 11 0 6 5 3 10 -5 5
-8 10 -10 10 -3z m947 -18 c24 -12 68 -43 96 -69 l52 -48 -24 -43 c-36 -66
-110 -168 -161 -223 -44 -48 -116 -106 -131 -106 -4 0 23 41 61 91 38 51 86
127 107 169 27 55 47 82 68 93 l30 16 -27 0 c-15 1 -44 16 -68 36 -23 19 -46
35 -52 35 -5 0 -6 5 -3 10 3 6 1 11 -4 11 -26 3 -30 4 -37 12 -4 4 -2 7 4 7
24 0 11 15 -15 17 -19 1 -22 -1 -12 -8 9 -6 4 -7 -16 -3 -36 8 -45 14 -21 14
9 0 15 4 12 9 -11 17 97 2 141 -20z m-930 -113 c-10 -8 -17 -16 -15 -19 2 -3
0 -8 -4 -12 -3 -4 -5 1 -4 10 1 9 9 21 17 26 22 14 26 10 6 -5z m-41 -52 c-1
-14 -8 -29 -16 -34 -8 -6 -11 -10 -6 -10 5 0 3 -6 -3 -13 -6 -8 -8 -16 -5 -19
2 -3 -3 -8 -12 -12 -12 -4 -15 -2 -10 9 3 8 0 15 -7 15 -9 0 -8 3 1 9 8 4 14
12 15 17 1 5 5 8 10 7 4 -2 8 2 8 7 3 20 4 25 12 38 12 18 14 15 13 -14z m901
-21 c28 -34 31 -42 19 -52 -12 -10 -18 -3 -38 36 -12 26 -27 52 -33 56 -6 5
-4 7 4 5 8 -2 29 -22 48 -45z m-297 -123 c25 -12 48 -28 52 -34 4 -6 8 -8 8
-4 0 4 15 -7 34 -25 27 -25 31 -34 19 -40 -8 -5 -20 -4 -29 4 -21 17 -178 49
-244 49 -69 0 -169 -16 -223 -36 -23 -8 -46 -16 -52 -17 -5 -2 -16 -6 -23 -11
-7 -4 -16 -5 -19 -2 -3 3 6 11 21 17 22 10 24 15 14 28 -7 9 -8 13 -4 9 5 -4
16 1 25 11 9 10 32 26 51 36 71 37 113 45 220 42 86 -3 113 -8 150 -27z m130
20 c0 -5 -2 -10 -4 -10 -3 0 -8 5 -11 10 -3 6 -1 10 4 10 6 0 11 -4 11 -10z
m-836 -125 c-12 -39 -65 -136 -84 -155 -15 -15 -16 -20 -6 -20 8 0 35 -31 60
-68 24 -37 63 -89 86 -115 23 -26 36 -47 30 -47 -15 0 -240 226 -240 240 0 6
18 34 40 63 21 29 49 74 60 100 19 42 23 46 40 34 14 -8 18 -18 14 -32z m1137
-17 c17 -35 46 -81 64 -104 l34 -41 -89 -94 c-82 -88 -175 -171 -155 -138 5 8
29 39 53 69 25 30 58 76 74 102 16 26 36 48 44 48 11 0 9 6 -7 23 -24 25 -79
134 -79 158 0 13 18 39 27 39 1 0 17 -28 34 -62z m-476 7 l40 -13 -45 4 -45 4
55 -16 c77 -21 111 -38 140 -70 14 -15 19 -24 13 -20 -7 4 -13 2 -13 -5 0 -7
-8 -6 -24 4 -39 26 -174 57 -245 57 -72 0 -175 -22 -235 -51 -22 -10 -42 -17
-44 -14 -3 3 0 5 7 5 7 0 10 4 6 9 -3 5 6 22 20 37 14 15 25 24 25 20 0 -4 10
-1 23 6 12 6 45 18 72 25 l50 13 -45 -4 -45 -4 40 13 c22 7 78 13 125 13 47 0
103 -6 125 -13z m-20 -156 c18 -7 18 -8 -5 -9 -16 -1 -6 -7 30 -17 62 -17 117
-53 117 -79 0 -14 -2 -14 -11 -3 -6 8 -44 25 -84 38 -94 30 -211 31 -296 2
-32 -12 -62 -18 -67 -15 -5 3 -12 -2 -15 -10 -3 -9 -10 -13 -15 -11 -21 14 50
61 121 81 30 8 37 13 21 13 -36 1 -19 11 36 21 50 8 133 3 168 -11z m20 -152
c51 -25 108 -77 87 -77 -7 0 -12 4 -12 8 0 10 -65 47 -100 57 -16 4 -9 -3 20
-22 25 -17 54 -43 64 -59 l19 -29 -29 26 c-16 15 -42 35 -59 44 -24 15 -20 9
18 -30 42 -43 52 -58 45 -68 -2 -2 4 -12 12 -23 8 -10 10 -16 6 -12 -5 4 -15
0 -22 -10 -12 -15 -12 -14 -8 8 l5 25 -18 -25 c-10 -13 -30 -36 -45 -51 -14
-15 -24 -30 -21 -32 2 -3 0 -8 -6 -12 -6 -3 -11 -1 -11 6 0 8 -4 8 -15 -1 -8
-7 -15 -18 -15 -25 0 -7 -7 -18 -15 -25 -9 -8 -15 -9 -15 -2 0 6 5 14 10 17 6
3 10 10 10 15 0 14 -33 21 -44 10 -8 -8 -6 -9 6 -5 12 5 16 2 13 -12 -2 -10
-4 -21 -4 -25 -1 -5 -6 -8 -12 -8 -6 0 -9 7 -5 15 3 8 2 14 -2 14 -4 -1 -10 0
-14 1 -5 1 -14 3 -20 4 -7 1 -12 7 -11 14 2 6 -8 19 -22 28 -14 9 -34 32 -46
51 -19 31 -24 33 -34 20 -10 -14 -13 -13 -24 5 -7 11 -8 17 -2 13 7 -4 11 3
11 17 0 13 19 42 48 72 49 51 43 53 -21 3 -21 -16 -40 -27 -43 -24 -7 7 94 87
109 87 5 0 8 3 5 6 -9 8 -80 -24 -105 -48 -13 -12 -23 -17 -23 -11 0 22 75 73
140 94 45 15 142 3 195 -24z m-198 -420 l11 -42 2 35 2 35 13 -40 13 -40 4 30
c3 19 6 25 10 15 3 -8 10 -24 14 -35 7 -19 8 -18 12 5 6 41 22 48 23 10 l1
-35 11 42 c17 59 29 66 22 13 -6 -51 -1 -45 15 19 6 23 14 41 16 38 13 -13
-83 -380 -96 -372 -11 7 -45 122 -70 235 -11 52 -23 106 -26 120 -9 41 10 12
23 -33z"/>
<path d="M3390 4289 c-12 -16 -20 -32 -17 -35 2 -3 14 11 25 31 26 43 21 46
-8 4z"/>
<path d="M2812 4186 c4 -5 3 -15 -3 -22 -7 -9 -6 -12 5 -10 25 3 28 12 9 27
-10 7 -15 9 -11 5z"/>
<path d="M3090 3572 c0 -5 7 -13 16 -16 10 -4 14 -1 12 6 -5 15 -28 23 -28 10z"/>
<path d="M3165 3570 c-3 -5 1 -10 9 -10 9 0 16 5 16 10 0 6 -4 10 -9 10 -6 0
-13 -4 -16 -10z"/>
<path d="M3390 2620 c0 -5 5 -10 11 -10 5 0 7 5 4 10 -3 6 -8 10 -11 10 -2 0
-4 -4 -4 -10z"/>
<path d="M2680 2879 c0 -5 5 -7 10 -4 6 3 10 8 10 11 0 2 -4 4 -10 4 -5 0 -10
-5 -10 -11z"/>
<path d="M2663 2665 c0 -8 4 -12 9 -9 5 3 6 10 3 15 -9 13 -12 11 -12 -6z"/>
<path d="M3400 2480 c0 -5 5 -10 11 -10 5 0 7 5 4 10 -3 6 -8 10 -11 10 -2 0
-4 -4 -4 -10z"/>
<path d="M3103 1875 c0 -8 4 -12 9 -9 5 3 6 10 3 15 -9 13 -12 11 -12 -6z"/>
<path d="M3082 1660 c0 -14 2 -19 5 -12 2 6 2 18 0 25 -3 6 -5 1 -5 -13z"/>
<path d="M3960 4241 c0 -5 7 -15 17 -22 15 -13 15 -12 4 9 -12 23 -21 28 -21
13z"/>
<path d="M4407 2229 c7 -7 15 -10 18 -7 3 3 -2 9 -12 12 -14 6 -15 5 -6 -5z"/>
</g>
</svg>
